<svg width="350" height="113" viewBox="0 0 350 113" fill="none" xmlns="http://www.w3.org/2000/svg">
<path d="M40.989 23.782C42.1527 23.7622 42.1527 23.7622 43.3398 23.742C44.0893 23.7387 44.8387 23.7354 45.6109 23.732C46.2963 23.7261 46.9816 23.7201 47.6877 23.7139C50.0333 23.9919 51.1818 24.441 53.0097 25.8605C53.8603 27.386 54.5 28.7483 55.1069 30.3547C55.2855 30.8004 55.464 31.246 55.648 31.7052C56.2239 33.1508 56.7832 34.6016 57.3422 36.0531C57.7346 37.0477 58.1279 38.042 58.522 39.0359C60.9925 45.2921 63.3768 51.5775 65.6727 57.8922C66.6418 60.5415 67.7277 63.1381 68.8929 65.7165C69.3203 66.7907 69.3203 66.7907 69.3203 68.0698C69.7689 68.0698 70.2174 68.0698 70.6796 68.0698C70.7586 67.6161 70.8376 67.1624 70.919 66.695C71.3889 64.7489 72.0966 63.1069 72.9653 61.2872C73.2881 60.605 73.6109 59.9229 73.9436 59.22C74.2822 58.5131 74.6208 57.8061 74.9696 57.0778C77.735 51.2842 77.735 51.2842 80.3083 45.4138C80.5262 44.9042 80.7442 44.3947 80.9688 43.8697C81.4672 42.692 81.9452 41.5067 82.4188 40.32C84.0498 38.0003 86.1062 37.2148 88.7742 36.2529C89.2779 36.0633 89.7816 35.8736 90.3005 35.6782C95.6464 33.7903 101.033 33.2224 106.699 32.8954C102.794 42.1957 98.3317 51.3217 93.7225 60.3295C92.3072 63.0966 90.9753 65.879 89.7087 68.7093C88.8244 70.6375 87.9102 72.5518 86.9902 74.4652C86.7891 74.8905 86.5879 75.3159 86.3806 75.7542C85.6853 77.2198 84.9793 78.6806 84.2718 80.141C84.046 80.6207 83.8203 81.1004 83.5877 81.5947C83.3649 82.0498 83.1421 82.505 82.9126 82.974C82.7163 83.3828 82.5201 83.7916 82.3179 84.2128C81.294 85.7188 80.5212 86.3968 78.8349 87.2559C76.9574 87.4199 75.2392 87.4799 73.3661 87.4432C72.842 87.4405 72.3179 87.4378 71.7779 87.435C70.109 87.4243 68.4406 87.4002 66.7718 87.3758C65.6382 87.3661 64.5047 87.3574 63.3711 87.3495C60.5967 87.3284 57.8227 87.2953 55.0485 87.2559C53.1141 83.3043 51.4231 79.3144 49.8718 75.2171C49.6447 74.6233 49.4176 74.0295 49.1836 73.4176C48.4464 71.4892 47.7122 69.5597 46.9781 67.6301C45.9485 64.9316 44.9173 62.2337 43.8853 59.536C43.6262 58.8583 43.3671 58.1806 43.1002 57.4824C41.3938 53.0279 39.6594 48.5839 37.9016 44.1472C37.5671 43.3015 37.5671 43.3015 37.2259 42.4386C36.3768 40.2925 35.5274 38.1464 34.669 36.0035C34.088 34.5532 33.5122 33.1012 32.9372 31.6488C32.7658 31.2258 32.5943 30.8029 32.4177 30.3671C31.5915 28.2671 31.2621 26.8642 31.2621 24.5814C34.1159 23.2387 37.8536 23.7952 40.989 23.782Z" fill="#1D334C"/>
<path fill-rule="evenodd" clip-rule="evenodd" d="M313.981 35.4535C313.484 42.7179 313.484 42.7179 312.664 45.806C311.805 49.074 311.471 52.3894 311.116 55.733C310.813 58.4307 310.288 60.9568 309.55 63.5773C308.983 65.8228 308.726 68.0966 308.459 70.3881C308.4 70.8514 308.341 71.3147 308.281 71.7921C307.965 74.3979 307.735 76.9543 307.864 79.5814C308.088 79.7925 308.313 80.0035 308.544 80.221C308.64 81.9289 308.573 83.6261 308.544 85.3372C305.478 87.0002 302.493 87.164 299.029 86.6163C297.367 85.167 296.626 84.0129 295.631 82.1396C295.14 82.5439 295.14 82.5439 294.638 82.9565C294.209 83.3068 293.78 83.6572 293.337 84.0182C292.912 84.3669 292.486 84.7156 292.047 85.0749C288.98 87.432 285.131 86.9457 281.359 86.6163C277.93 85.1445 276.616 83.486 275.243 80.221C273.055 73.4027 274.876 66.1148 278.309 59.9882C280.732 56.3669 284.255 53.0402 288.676 51.7242C290.575 51.371 292.378 51.3333 294.314 51.322C295.023 51.3129 295.732 51.3038 296.462 51.2945C298.349 51.4419 298.349 51.4419 300.388 52.721C300.414 52.2708 300.439 51.8207 300.465 51.357C300.834 46.1393 301.836 41.179 303.107 36.0931C306.782 35.599 310.269 35.3912 313.981 35.4535ZM295.758 59.0364C297.041 59.076 297.041 59.076 298.349 59.1163C298.271 60.729 298.185 62.3407 298.095 63.9528C298.063 64.6286 298.063 64.6286 298.031 65.3181C297.733 70.3879 296.654 73.9659 292.913 77.6628C290.99 78.5674 289.6 78.5064 287.476 78.3024C285.938 77.1928 285.535 76.3028 285.222 74.5176C284.942 69.7153 286.695 65.5916 289.557 61.6744C291.581 59.7081 292.891 58.9479 295.758 59.0364Z" fill="#0DA08F"/>
<path fill-rule="evenodd" clip-rule="evenodd" d="M126.918 52.8009C129.576 54.7878 131.588 56.7486 132.076 60.0306C132.2 63.1761 132.147 65.6599 129.806 68.0698C123.156 72.7018 116.803 73.326 108.738 73.186C109.916 75.8228 109.916 75.8228 111.924 77.9026C115.699 78.8628 118.448 78.6961 121.82 76.9433C122.244 76.691 122.668 76.4388 123.105 76.1789C124.369 75.7442 124.369 75.7442 125.832 76.2363C127.402 77.2206 127.881 77.889 128.447 79.5814C128.532 81.1403 128.532 81.1403 127.767 82.7791C123.267 86.1534 119.303 86.7725 113.708 86.8561C112.817 86.892 112.817 86.892 111.909 86.9285C107.507 86.9842 104.642 86.1099 101.262 83.4186C100.012 82.0546 100.012 82.0546 99.2658 80.7805C99.0074 80.3568 98.749 79.933 98.4827 79.4964C96.1787 75.0486 96.3178 69.2546 97.9518 64.6098C100.844 58.9893 104.074 54.8105 110.097 52.0814C114.87 50.5776 122.549 50.3717 126.918 52.8009ZM119.612 59.1163C120.06 59.5384 120.509 59.9605 120.971 60.3953C120.747 62.504 120.548 63.3517 118.932 64.8721C117.442 65.1641 115.938 65.3968 114.43 65.5916C113.218 65.7523 113.218 65.7523 111.982 65.9163C111.36 65.9938 110.738 66.0713 110.097 66.1512C110.54 62.9717 111.643 61.8145 114.233 59.8632C116.112 58.7842 117.474 58.742 119.612 59.1163Z" fill="#1D334C"/>
<path fill-rule="evenodd" clip-rule="evenodd" d="M224.357 51.162C224.82 51.1555 225.283 51.149 225.76 51.1422C229.943 51.2107 232.592 52.4076 235.74 54.9193C237.766 57.381 237.618 60.0529 237.461 63.0559C237.071 65.6175 236.418 66.8723 234.466 68.7093C228.654 72.6859 222.449 73.3989 215.437 73.186C215.885 74.8744 216.334 76.5628 216.796 78.3023C222.2 78.6074 225.709 78.3533 230.388 75.7442C230.837 75.7442 231.285 75.7442 231.748 75.7442C232.984 77.3104 233.708 78.6463 234.211 80.5407C233.619 82.7711 232.432 83.4519 230.41 84.6527C225.248 87.2121 219.089 87.1588 213.398 86.6163C209.495 85.1199 207.112 83.0402 205.168 79.4789C203.33 73.9629 203.686 67.066 206.305 61.8742C208.244 58.7849 210.374 56.1968 213.398 54C213.77 53.7238 214.143 53.4476 214.526 53.1631C217.611 51.3195 220.779 51.2014 224.357 51.162ZM223.762 58.8365C226.311 59.1163 226.311 59.1163 226.99 59.7558C227.245 61.2347 227.245 61.2347 226.99 62.9535C224.934 65.2761 223.056 65.6958 219.982 65.9913C218.921 66.0554 217.859 66.1123 216.796 66.1511C217.166 62.2034 219.3 58.8817 223.762 58.8365Z" fill="#0D9E8E"/>
<path d="M243.301 51.4419C244.759 51.4247 246.218 51.4123 247.676 51.4019C248.488 51.3945 249.3 51.3871 250.137 51.3794C252.136 51.4419 252.136 51.4419 252.816 52.0814C252.843 53.5734 252.844 55.0662 252.816 56.5582C253.264 56.5582 253.713 56.5582 254.175 56.5582C254.399 55.925 254.623 55.2919 254.854 54.6396C257.571 52.2128 260.397 51.2064 264.114 51.0822C267.507 51.2285 269.325 51.8785 271.845 54C274.971 59.8843 271.923 70.0501 270.75 76.2414C270.358 78.3494 270.018 80.4632 269.678 82.5792C269.496 83.7004 269.314 84.8216 269.126 85.9768C265.538 85.9768 261.95 85.9768 258.252 85.9768C258.252 82.96 258.312 80.6269 258.847 77.7453C258.97 77.0614 259.092 76.3776 259.219 75.673C259.48 74.2573 259.742 72.8417 260.005 71.4261C260.674 67.6894 261.128 64.1852 260.971 60.3954C259.137 59.9109 259.137 59.9109 256.893 60.3954C252.45 64.145 251.344 68.1325 250.904 73.5458C250.775 74.8127 250.643 76.0793 250.509 77.3456C250.448 77.9417 250.387 78.5378 250.324 79.1521C250.012 81.5013 249.42 83.6999 248.738 85.9768C245.15 85.9768 241.561 85.9768 237.864 85.9768C238.158 81.2743 238.527 76.9009 239.552 72.303C240.255 68.9487 240.685 65.5532 241.164 62.1653C241.693 58.5373 242.409 55.007 243.301 51.4419Z" fill="#0DA18F"/>
<path d="M155.589 51.1221C156.129 51.1243 156.669 51.1266 157.225 51.129C160.766 51.2237 163.392 51.643 166.292 53.6902C167.315 54.7781 167.919 55.8749 168.544 57.1977C167.089 58.8665 165.623 60.3724 163.786 61.6744C161.578 61.6344 161.578 61.6344 159.029 61.0349C154.514 60.4576 154.514 60.4576 150.367 61.7793C147.37 65.0426 146.527 68.2592 146.616 72.4466C146.899 74.6082 147.896 76.1399 149.515 77.6628C153.305 78.0344 155.655 77.2454 159.018 75.6018C160.388 75.1046 160.388 75.1046 162.427 75.7442C163.815 77.423 164.466 78.4349 164.466 80.5807C163.378 83.0772 161.678 84.0829 159.162 85.2822C153.996 87.2452 147.672 87.5608 142.31 86.1516C138.438 84.4732 136.295 82.0087 134.733 78.3023C132.793 72.0961 133.336 66.6396 136.518 60.9287C140.667 54.1748 147.525 51.0616 155.589 51.1221Z" fill="#1F344E"/>
<path d="M125.728 12.4302C127.954 13.3395 129.346 14.434 130.995 16.1C131.465 16.572 131.934 17.0439 132.418 17.5302C133.143 18.2703 133.143 18.2703 133.883 19.0254C134.367 19.5114 134.851 19.9973 135.349 20.4981C140.713 25.9181 140.713 25.9181 142.039 27.779C141.702 28.7287 141.702 28.7287 141.359 29.6976C139.896 30.2147 139.896 30.2147 138.004 30.6169C134.852 31.3527 131.955 32.2895 128.962 33.4624C124.555 35.1365 120.042 36.5975 115.534 38.0116C115.905 35.0781 116.805 32.9442 118.252 30.3372C104.288 30.0993 91.9553 31.0862 80.072 38.6486C79.6638 38.8605 79.2555 39.0723 78.8349 39.2906C78.3864 39.0796 77.9378 38.8685 77.4757 38.6511C88.0446 27.9879 101.062 20.2173 116.875 19.3102C118.929 19.306 120.96 19.3443 123.01 19.4651C123.1 18.8698 123.19 18.2746 123.283 17.6614C123.709 15.5278 124.446 14.2138 125.728 12.4302Z" fill="#0EA091"/>
<path d="M205.922 35.4535C204.984 42.0379 204.027 48.6193 203.015 55.1941C202.94 55.6848 202.865 56.1754 202.787 56.6809C202.411 59.1346 202.032 61.588 201.65 64.041C200.885 68.9979 200.201 73.9443 199.806 78.9419C200.479 78.9419 201.151 78.9419 201.845 78.9419C201.845 81.0523 201.845 83.1628 201.845 85.3372C198.509 86.9069 195.997 86.9904 192.33 86.6163C189.263 85.3204 189.263 85.3204 188.252 83.4186C187.471 75.351 189.118 67.3794 190.501 59.4478C190.888 57.2279 191.263 55.0065 191.637 52.7846C191.88 51.3585 192.123 49.9325 192.367 48.5065C192.479 47.8496 192.591 47.1926 192.706 46.5158C193.323 42.9879 194.067 39.5476 195.048 36.093C196.429 35.9332 196.429 35.9332 197.809 35.7733C198.578 35.6842 198.578 35.6842 199.362 35.5934C201.554 35.4233 203.724 35.4333 205.922 35.4535Z" fill="#0D9F8E"/>
<path d="M184.175 35.4535C186.511 36.6926 186.511 36.6926 188.252 38.6512C188.751 40.6626 188.729 42.3929 188.252 44.407C186.758 46.3462 185.908 46.8478 183.495 47.6047C180.591 47.9083 179.209 47.897 176.742 46.3656C175.111 44.0873 174.796 42.7358 174.968 40.0327C175.34 38.6512 175.34 38.6512 177.081 36.6926C179.812 35.2441 181.093 34.9357 184.175 35.4535Z" fill="#223750"/>
<path d="M173.981 51.4419C178.017 51.4419 182.054 51.4419 186.214 51.4419C185.762 56.2022 185.053 60.8788 184.217 65.5916C183.254 71.1161 182.39 76.6314 181.724 82.1945C181.456 84.0582 181.456 84.0582 180.777 85.9768C176.964 85.9768 173.151 85.9768 169.223 85.9768C169.749 76.8259 169.749 76.8259 170.519 73.8056C171.603 69.4858 172.107 65.0726 172.706 60.6752C172.831 59.7771 172.956 58.879 173.081 57.9809C173.384 55.8016 173.682 53.6218 173.981 51.4419Z" fill="#1F354D"/>
<path d="M84.9514 31.6163C85.4 31.8274 85.8485 32.0384 86.3107 32.2559C85.6378 33.2056 85.6378 33.2056 84.9514 34.1745C85.6243 34.3855 86.2971 34.5966 86.9903 34.814C85.7898 35.4585 84.5856 36.0969 83.3798 36.7326C82.3746 37.2668 82.3746 37.2668 81.349 37.8118C79.5145 38.6512 79.5145 38.6512 77.4757 38.6512C79.9427 36.3297 82.4097 34.0082 84.9514 31.6163Z" fill="#24AC9C"/>
<path d="M313.981 35.4535C313.756 37.9861 313.532 40.5186 313.301 43.1279C313.077 43.1279 312.852 43.1279 312.621 43.1279C312.621 41.0175 312.621 38.907 312.621 36.7326C309.482 36.7326 306.342 36.7326 303.107 36.7326C303.107 36.5215 303.107 36.3105 303.107 36.0931C306.782 35.599 310.269 35.3912 313.981 35.4535Z" fill="#55BFB2"/>
<path d="M259.229 59.436C260.091 59.5943 260.091 59.5943 260.971 59.7558C260.575 59.919 260.179 60.0823 259.771 60.2504C258.107 61.11 257.017 62.0697 255.704 63.3532C255.287 63.7571 254.87 64.1611 254.44 64.5773C254.128 64.8856 253.817 65.1939 253.495 65.5116C253.047 65.3006 252.598 65.0895 252.136 64.8721C256.157 59.8566 256.157 59.8566 259.229 59.436Z" fill="#0DA18F"/>
<path d="M143.398 54C143.847 54.211 144.295 54.4221 144.757 54.6395C142.739 56.539 140.72 58.4384 138.641 60.3953C138.192 60.1843 137.744 59.9733 137.281 59.7558C139.178 57.5254 140.851 55.5978 143.398 54Z" fill="#1D334C"/>
<path d="M81.5534 34.814C82.0019 35.4471 82.4505 36.0802 82.9126 36.7326C81.567 37.5768 80.2213 38.4209 78.8349 39.2907C78.3864 39.0797 77.9378 38.8686 77.4757 38.6512C78.8213 37.3849 80.167 36.1186 81.5534 34.814Z" fill="#34C3A8"/>
</svg>
