<svg xmlns="http://www.w3.org/2000/svg" version="1.1" xmlns:xlink="http://www.w3.org/1999/xlink" width="1000" height="1000"><metadata><rdf:RDF xmlns:rdf="http://www.w3.org/1999/02/22-rdf-syntax-ns#" xmlns:dc="http://purl.org/dc/elements/1.1/"><rdf:Description><dc:creator>RealFaviconGenerator</dc:creator><dc:source>https://realfavicongenerator.net</dc:source></rdf:Description></rdf:RDF></metadata><style>
    #light-icon {
      display: inline;
    }
    #dark-icon {
      display: none;
    }

    @media (prefers-color-scheme: dark) {
      #light-icon {
        display: none;
      }
      #dark-icon {
        display: inline;
      }
    }
  </style><g id="light-icon"><svg xmlns="http://www.w3.org/2000/svg" version="1.1" xmlns:xlink="http://www.w3.org/1999/xlink" width="1000" height="1000"><g><g transform="matrix(2.857142857142857,0,0,2.857142857142857,0,338.57142857142856)"><svg xmlns="http://www.w3.org/2000/svg" width="350" height="113" viewBox="0 0 350 113" fill="none"><path d="M40.989 23.782C42.1527 23.7622 42.1527 23.7622 43.3398 23.742C44.0893 23.7387 44.8387 23.7354 45.6109 23.732C46.2963 23.7261 46.9816 23.7201 47.6877 23.7139C50.0333 23.9919 51.1818 24.441 53.0097 25.8605C53.8603 27.386 54.5 28.7483 55.1069 30.3547C55.2855 30.8004 55.464 31.246 55.648 31.7052C56.2239 33.1508 56.7832 34.6016 57.3422 36.0531C57.7346 37.0477 58.1279 38.042 58.522 39.0359C60.9925 45.2921 63.3768 51.5775 65.6727 57.8922C66.6418 60.5415 67.7277 63.1381 68.8929 65.7165C69.3203 66.7907 69.3203 66.7907 69.3203 68.0698C69.7689 68.0698 70.2174 68.0698 70.6796 68.0698C70.7586 67.6161 70.8376 67.1624 70.919 66.695C71.3889 64.7489 72.0966 63.1069 72.9653 61.2872C73.2881 60.605 73.6109 59.9229 73.9436 59.22C74.2822 58.5131 74.6208 57.8061 74.9696 57.0778C77.735 51.2842 77.735 51.2842 80.3083 45.4138C80.5262 44.9042 80.7442 44.3947 80.9688 43.8697C81.4672 42.692 81.9452 41.5067 82.4188 40.32C84.0498 38.0003 86.1062 37.2148 88.7742 36.2529C89.2779 36.0633 89.7816 35.8736 90.3005 35.6782C95.6464 33.7903 101.033 33.2224 106.699 32.8954C102.794 42.1957 98.3317 51.3217 93.7225 60.3295C92.3072 63.0966 90.9753 65.879 89.7087 68.7093C88.8244 70.6375 87.9102 72.5518 86.9902 74.4652C86.7891 74.8905 86.5879 75.3159 86.3806 75.7542C85.6853 77.2198 84.9793 78.6806 84.2718 80.141C84.046 80.6207 83.8203 81.1004 83.5877 81.5947C83.3649 82.0498 83.1421 82.505 82.9126 82.974C82.7163 83.3828 82.5201 83.7916 82.3179 84.2128C81.294 85.7188 80.5212 86.3968 78.8349 87.2559C76.9574 87.4199 75.2392 87.4799 73.3661 87.4432C72.842 87.4405 72.3179 87.4378 71.7779 87.435C70.109 87.4243 68.4406 87.4002 66.7718 87.3758C65.6382 87.3661 64.5047 87.3574 63.3711 87.3495C60.5967 87.3284 57.8227 87.2953 55.0485 87.2559C53.1141 83.3043 51.4231 79.3144 49.8718 75.2171C49.6447 74.6233 49.4176 74.0295 49.1836 73.4176C48.4464 71.4892 47.7122 69.5597 46.9781 67.6301C45.9485 64.9316 44.9173 62.2337 43.8853 59.536C43.6262 58.8583 43.3671 58.1806 43.1002 57.4824C41.3938 53.0279 39.6594 48.5839 37.9016 44.1472C37.5671 43.3015 37.5671 43.3015 37.2259 42.4386C36.3768 40.2925 35.5274 38.1464 34.669 36.0035C34.088 34.5532 33.5122 33.1012 32.9372 31.6488C32.7658 31.2258 32.5943 30.8029 32.4177 30.3671C31.5915 28.2671 31.2621 26.8642 31.2621 24.5814C34.1159 23.2387 37.8536 23.7952 40.989 23.782Z" fill="#1D334C"></path><path fill-rule="evenodd" clip-rule="evenodd" d="M313.981 35.4535C313.484 42.7179 313.484 42.7179 312.664 45.806C311.805 49.074 311.471 52.3894 311.116 55.733C310.813 58.4307 310.288 60.9568 309.55 63.5773C308.983 65.8228 308.726 68.0966 308.459 70.3881C308.4 70.8514 308.341 71.3147 308.281 71.7921C307.965 74.3979 307.735 76.9543 307.864 79.5814C308.088 79.7925 308.313 80.0035 308.544 80.221C308.64 81.9289 308.573 83.6261 308.544 85.3372C305.478 87.0002 302.493 87.164 299.029 86.6163C297.367 85.167 296.626 84.0129 295.631 82.1396C295.14 82.5439 295.14 82.5439 294.638 82.9565C294.209 83.3068 293.78 83.6572 293.337 84.0182C292.912 84.3669 292.486 84.7156 292.047 85.0749C288.98 87.432 285.131 86.9457 281.359 86.6163C277.93 85.1445 276.616 83.486 275.243 80.221C273.055 73.4027 274.876 66.1148 278.309 59.9882C280.732 56.3669 284.255 53.0402 288.676 51.7242C290.575 51.371 292.378 51.3333 294.314 51.322C295.023 51.3129 295.732 51.3038 296.462 51.2945C298.349 51.4419 298.349 51.4419 300.388 52.721C300.414 52.2708 300.439 51.8207 300.465 51.357C300.834 46.1393 301.836 41.179 303.107 36.0931C306.782 35.599 310.269 35.3912 313.981 35.4535ZM295.758 59.0364C297.041 59.076 297.041 59.076 298.349 59.1163C298.271 60.729 298.185 62.3407 298.095 63.9528C298.063 64.6286 298.063 64.6286 298.031 65.3181C297.733 70.3879 296.654 73.9659 292.913 77.6628C290.99 78.5674 289.6 78.5064 287.476 78.3024C285.938 77.1928 285.535 76.3028 285.222 74.5176C284.942 69.7153 286.695 65.5916 289.557 61.6744C291.581 59.7081 292.891 58.9479 295.758 59.0364Z" fill="#0DA08F"></path><path fill-rule="evenodd" clip-rule="evenodd" d="M126.918 52.8009C129.576 54.7878 131.588 56.7486 132.076 60.0306C132.2 63.1761 132.147 65.6599 129.806 68.0698C123.156 72.7018 116.803 73.326 108.738 73.186C109.916 75.8228 109.916 75.8228 111.924 77.9026C115.699 78.8628 118.448 78.6961 121.82 76.9433C122.244 76.691 122.668 76.4388 123.105 76.1789C124.369 75.7442 124.369 75.7442 125.832 76.2363C127.402 77.2206 127.881 77.889 128.447 79.5814C128.532 81.1403 128.532 81.1403 127.767 82.7791C123.267 86.1534 119.303 86.7725 113.708 86.8561C112.817 86.892 112.817 86.892 111.909 86.9285C107.507 86.9842 104.642 86.1099 101.262 83.4186C100.012 82.0546 100.012 82.0546 99.2658 80.7805C99.0074 80.3568 98.749 79.933 98.4827 79.4964C96.1787 75.0486 96.3178 69.2546 97.9518 64.6098C100.844 58.9893 104.074 54.8105 110.097 52.0814C114.87 50.5776 122.549 50.3717 126.918 52.8009ZM119.612 59.1163C120.06 59.5384 120.509 59.9605 120.971 60.3953C120.747 62.504 120.548 63.3517 118.932 64.8721C117.442 65.1641 115.938 65.3968 114.43 65.5916C113.218 65.7523 113.218 65.7523 111.982 65.9163C111.36 65.9938 110.738 66.0713 110.097 66.1512C110.54 62.9717 111.643 61.8145 114.233 59.8632C116.112 58.7842 117.474 58.742 119.612 59.1163Z" fill="#1D334C"></path><path fill-rule="evenodd" clip-rule="evenodd" d="M224.357 51.162C224.82 51.1555 225.283 51.149 225.76 51.1422C229.943 51.2107 232.592 52.4076 235.74 54.9193C237.766 57.381 237.618 60.0529 237.461 63.0559C237.071 65.6175 236.418 66.8723 234.466 68.7093C228.654 72.6859 222.449 73.3989 215.437 73.186C215.885 74.8744 216.334 76.5628 216.796 78.3023C222.2 78.6074 225.709 78.3533 230.388 75.7442C230.837 75.7442 231.285 75.7442 231.748 75.7442C232.984 77.3104 233.708 78.6463 234.211 80.5407C233.619 82.7711 232.432 83.4519 230.41 84.6527C225.248 87.2121 219.089 87.1588 213.398 86.6163C209.495 85.1199 207.112 83.0402 205.168 79.4789C203.33 73.9629 203.686 67.066 206.305 61.8742C208.244 58.7849 210.374 56.1968 213.398 54C213.77 53.7238 214.143 53.4476 214.526 53.1631C217.611 51.3195 220.779 51.2014 224.357 51.162ZM223.762 58.8365C226.311 59.1163 226.311 59.1163 226.99 59.7558C227.245 61.2347 227.245 61.2347 226.99 62.9535C224.934 65.2761 223.056 65.6958 219.982 65.9913C218.921 66.0554 217.859 66.1123 216.796 66.1511C217.166 62.2034 219.3 58.8817 223.762 58.8365Z" fill="#0D9E8E"></path><path d="M243.301 51.4419C244.759 51.4247 246.218 51.4123 247.676 51.4019C248.488 51.3945 249.3 51.3871 250.137 51.3794C252.136 51.4419 252.136 51.4419 252.816 52.0814C252.843 53.5734 252.844 55.0662 252.816 56.5582C253.264 56.5582 253.713 56.5582 254.175 56.5582C254.399 55.925 254.623 55.2919 254.854 54.6396C257.571 52.2128 260.397 51.2064 264.114 51.0822C267.507 51.2285 269.325 51.8785 271.845 54C274.971 59.8843 271.923 70.0501 270.75 76.2414C270.358 78.3494 270.018 80.4632 269.678 82.5792C269.496 83.7004 269.314 84.8216 269.126 85.9768C265.538 85.9768 261.95 85.9768 258.252 85.9768C258.252 82.96 258.312 80.6269 258.847 77.7453C258.97 77.0614 259.092 76.3776 259.219 75.673C259.48 74.2573 259.742 72.8417 260.005 71.4261C260.674 67.6894 261.128 64.1852 260.971 60.3954C259.137 59.9109 259.137 59.9109 256.893 60.3954C252.45 64.145 251.344 68.1325 250.904 73.5458C250.775 74.8127 250.643 76.0793 250.509 77.3456C250.448 77.9417 250.387 78.5378 250.324 79.1521C250.012 81.5013 249.42 83.6999 248.738 85.9768C245.15 85.9768 241.561 85.9768 237.864 85.9768C238.158 81.2743 238.527 76.9009 239.552 72.303C240.255 68.9487 240.685 65.5532 241.164 62.1653C241.693 58.5373 242.409 55.007 243.301 51.4419Z" fill="#0DA18F"></path><path d="M155.589 51.1221C156.129 51.1243 156.669 51.1266 157.225 51.129C160.766 51.2237 163.392 51.643 166.292 53.6902C167.315 54.7781 167.919 55.8749 168.544 57.1977C167.089 58.8665 165.623 60.3724 163.786 61.6744C161.578 61.6344 161.578 61.6344 159.029 61.0349C154.514 60.4576 154.514 60.4576 150.367 61.7793C147.37 65.0426 146.527 68.2592 146.616 72.4466C146.899 74.6082 147.896 76.1399 149.515 77.6628C153.305 78.0344 155.655 77.2454 159.018 75.6018C160.388 75.1046 160.388 75.1046 162.427 75.7442C163.815 77.423 164.466 78.4349 164.466 80.5807C163.378 83.0772 161.678 84.0829 159.162 85.2822C153.996 87.2452 147.672 87.5608 142.31 86.1516C138.438 84.4732 136.295 82.0087 134.733 78.3023C132.793 72.0961 133.336 66.6396 136.518 60.9287C140.667 54.1748 147.525 51.0616 155.589 51.1221Z" fill="#1F344E"></path><path d="M125.728 12.4302C127.954 13.3395 129.346 14.434 130.995 16.1C131.465 16.572 131.934 17.0439 132.418 17.5302C133.143 18.2703 133.143 18.2703 133.883 19.0254C134.367 19.5114 134.851 19.9973 135.349 20.4981C140.713 25.9181 140.713 25.9181 142.039 27.779C141.702 28.7287 141.702 28.7287 141.359 29.6976C139.896 30.2147 139.896 30.2147 138.004 30.6169C134.852 31.3527 131.955 32.2895 128.962 33.4624C124.555 35.1365 120.042 36.5975 115.534 38.0116C115.905 35.0781 116.805 32.9442 118.252 30.3372C104.288 30.0993 91.9553 31.0862 80.072 38.6486C79.6638 38.8605 79.2555 39.0723 78.8349 39.2906C78.3864 39.0796 77.9378 38.8685 77.4757 38.6511C88.0446 27.9879 101.062 20.2173 116.875 19.3102C118.929 19.306 120.96 19.3443 123.01 19.4651C123.1 18.8698 123.19 18.2746 123.283 17.6614C123.709 15.5278 124.446 14.2138 125.728 12.4302Z" fill="#0EA091"></path><path d="M205.922 35.4535C204.984 42.0379 204.027 48.6193 203.015 55.1941C202.94 55.6848 202.865 56.1754 202.787 56.6809C202.411 59.1346 202.032 61.588 201.65 64.041C200.885 68.9979 200.201 73.9443 199.806 78.9419C200.479 78.9419 201.151 78.9419 201.845 78.9419C201.845 81.0523 201.845 83.1628 201.845 85.3372C198.509 86.9069 195.997 86.9904 192.33 86.6163C189.263 85.3204 189.263 85.3204 188.252 83.4186C187.471 75.351 189.118 67.3794 190.501 59.4478C190.888 57.2279 191.263 55.0065 191.637 52.7846C191.88 51.3585 192.123 49.9325 192.367 48.5065C192.479 47.8496 192.591 47.1926 192.706 46.5158C193.323 42.9879 194.067 39.5476 195.048 36.093C196.429 35.9332 196.429 35.9332 197.809 35.7733C198.578 35.6842 198.578 35.6842 199.362 35.5934C201.554 35.4233 203.724 35.4333 205.922 35.4535Z" fill="#0D9F8E"></path><path d="M184.175 35.4535C186.511 36.6926 186.511 36.6926 188.252 38.6512C188.751 40.6626 188.729 42.3929 188.252 44.407C186.758 46.3462 185.908 46.8478 183.495 47.6047C180.591 47.9083 179.209 47.897 176.742 46.3656C175.111 44.0873 174.796 42.7358 174.968 40.0327C175.34 38.6512 175.34 38.6512 177.081 36.6926C179.812 35.2441 181.093 34.9357 184.175 35.4535Z" fill="#223750"></path><path d="M173.981 51.4419C178.017 51.4419 182.054 51.4419 186.214 51.4419C185.762 56.2022 185.053 60.8788 184.217 65.5916C183.254 71.1161 182.39 76.6314 181.724 82.1945C181.456 84.0582 181.456 84.0582 180.777 85.9768C176.964 85.9768 173.151 85.9768 169.223 85.9768C169.749 76.8259 169.749 76.8259 170.519 73.8056C171.603 69.4858 172.107 65.0726 172.706 60.6752C172.831 59.7771 172.956 58.879 173.081 57.9809C173.384 55.8016 173.682 53.6218 173.981 51.4419Z" fill="#1F354D"></path><path d="M84.9514 31.6163C85.4 31.8274 85.8485 32.0384 86.3107 32.2559C85.6378 33.2056 85.6378 33.2056 84.9514 34.1745C85.6243 34.3855 86.2971 34.5966 86.9903 34.814C85.7898 35.4585 84.5856 36.0969 83.3798 36.7326C82.3746 37.2668 82.3746 37.2668 81.349 37.8118C79.5145 38.6512 79.5145 38.6512 77.4757 38.6512C79.9427 36.3297 82.4097 34.0082 84.9514 31.6163Z" fill="#24AC9C"></path><path d="M313.981 35.4535C313.756 37.9861 313.532 40.5186 313.301 43.1279C313.077 43.1279 312.852 43.1279 312.621 43.1279C312.621 41.0175 312.621 38.907 312.621 36.7326C309.482 36.7326 306.342 36.7326 303.107 36.7326C303.107 36.5215 303.107 36.3105 303.107 36.0931C306.782 35.599 310.269 35.3912 313.981 35.4535Z" fill="#55BFB2"></path><path d="M259.229 59.436C260.091 59.5943 260.091 59.5943 260.971 59.7558C260.575 59.919 260.179 60.0823 259.771 60.2504C258.107 61.11 257.017 62.0697 255.704 63.3532C255.287 63.7571 254.87 64.1611 254.44 64.5773C254.128 64.8856 253.817 65.1939 253.495 65.5116C253.047 65.3006 252.598 65.0895 252.136 64.8721C256.157 59.8566 256.157 59.8566 259.229 59.436Z" fill="#0DA18F"></path><path d="M143.398 54C143.847 54.211 144.295 54.4221 144.757 54.6395C142.739 56.539 140.72 58.4384 138.641 60.3953C138.192 60.1843 137.744 59.9733 137.281 59.7558C139.178 57.5254 140.851 55.5978 143.398 54Z" fill="#1D334C"></path><path d="M81.5534 34.814C82.0019 35.4471 82.4505 36.0802 82.9126 36.7326C81.567 37.5768 80.2213 38.4209 78.8349 39.2907C78.3864 39.0797 77.9378 38.8686 77.4757 38.6512C78.8213 37.3849 80.167 36.1186 81.5534 34.814Z" fill="#34C3A8"></path></svg></g></g></svg></g><g id="dark-icon"><svg xmlns="http://www.w3.org/2000/svg" version="1.1" xmlns:xlink="http://www.w3.org/1999/xlink" width="1000" height="1000"><g><g transform="matrix(2.857142857142857,0,0,2.857142857142857,0,325.7142857142857)"><svg xmlns="http://www.w3.org/2000/svg" width="350" height="122" viewBox="0 0 350 122" fill="none"><path d="M40.989 29.782C42.1527 29.7622 42.1527 29.7622 43.3398 29.742C44.0893 29.7387 44.8387 29.7354 45.6109 29.732C46.2963 29.7261 46.9816 29.7201 47.6877 29.7139C50.0333 29.9919 51.1818 30.441 53.0097 31.8605C53.8603 33.386 54.5 34.7483 55.1069 36.3547C55.2855 36.8004 55.464 37.246 55.648 37.7052C56.2239 39.1508 56.7832 40.6016 57.3422 42.0531C57.7346 43.0477 58.1279 44.042 58.522 45.0359C60.9925 51.2921 63.3768 57.5775 65.6727 63.8922C66.6418 66.5415 67.7277 69.1381 68.8929 71.7165C69.3203 72.7907 69.3203 72.7907 69.3203 74.0698C69.7689 74.0698 70.2174 74.0698 70.6796 74.0698C70.7586 73.6161 70.8376 73.1624 70.919 72.695C71.3889 70.7489 72.0966 69.1069 72.9653 67.2872C73.2881 66.605 73.6109 65.9229 73.9436 65.22C74.2822 64.5131 74.6208 63.8061 74.9696 63.0778C77.735 57.2842 77.735 57.2842 80.3083 51.4138C80.5262 50.9042 80.7442 50.3947 80.9688 49.8697C81.4672 48.692 81.9452 47.5067 82.4188 46.32C84.0498 44.0003 86.1062 43.2148 88.7742 42.2529C89.2779 42.0633 89.7816 41.8736 90.3005 41.6782C95.6464 39.7903 101.033 39.2224 106.699 38.8954C102.794 48.1957 98.3317 57.3217 93.7225 66.3295C92.3072 69.0966 90.9753 71.879 89.7087 74.7093C88.8244 76.6375 87.9102 78.5518 86.9902 80.4652C86.7891 80.8905 86.5879 81.3159 86.3806 81.7542C85.6853 83.2198 84.9793 84.6806 84.2718 86.141C84.046 86.6207 83.8203 87.1004 83.5877 87.5947C83.3649 88.0498 83.1421 88.505 82.9126 88.974C82.7163 89.3828 82.5201 89.7916 82.3179 90.2128C81.294 91.7188 80.5212 92.3968 78.8349 93.2559C76.9574 93.4199 75.2392 93.4799 73.3661 93.4432C72.842 93.4405 72.3179 93.4378 71.7779 93.435C70.109 93.4243 68.4406 93.4002 66.7718 93.3758C65.6382 93.3661 64.5047 93.3574 63.3711 93.3495C60.5967 93.3284 57.8227 93.2953 55.0485 93.2559C53.1141 89.3043 51.4231 85.3144 49.8718 81.2171C49.6447 80.6233 49.4176 80.0295 49.1836 79.4176C48.4464 77.4892 47.7122 75.5597 46.9781 73.6301C45.9485 70.9316 44.9173 68.2337 43.8853 65.536C43.6262 64.8583 43.3671 64.1806 43.1002 63.4824C41.3938 59.0279 39.6594 54.5839 37.9016 50.1472C37.5671 49.3015 37.5671 49.3015 37.2259 48.4386C36.3768 46.2925 35.5274 44.1464 34.669 42.0035C34.088 40.5532 33.5122 39.1012 32.9372 37.6488C32.7658 37.2258 32.5943 36.8029 32.4177 36.3671C31.5915 34.2671 31.2621 32.8642 31.2621 30.5814C34.1159 29.2387 37.8536 29.7952 40.989 29.782Z" fill="#F2F4F8"></path><path fill-rule="evenodd" clip-rule="evenodd" d="M313.981 41.4535C313.484 48.7179 313.484 48.7179 312.664 51.806C311.805 55.074 311.471 58.3894 311.116 61.733C310.813 64.4307 310.288 66.9568 309.551 69.5773C308.983 71.8228 308.726 74.0966 308.459 76.3881C308.4 76.8514 308.341 77.3147 308.281 77.7921C307.965 80.3979 307.735 82.9543 307.864 85.5814C308.088 85.7925 308.313 86.0035 308.544 86.221C308.64 87.9289 308.573 89.6261 308.544 91.3372C305.478 93.0002 302.493 93.164 299.029 92.6163C297.368 91.167 296.626 90.0129 295.631 88.1396C295.14 88.5439 295.14 88.5439 294.638 88.9565C294.209 89.3068 293.78 89.6572 293.337 90.0182C292.912 90.3669 292.486 90.7156 292.047 91.0749C288.981 93.432 285.131 92.9457 281.359 92.6163C277.93 91.1445 276.616 89.486 275.243 86.221C273.055 79.4027 274.877 72.1148 278.309 65.9882C280.732 62.3669 284.255 59.0402 288.676 57.7242C290.575 57.371 292.378 57.3333 294.314 57.322C295.023 57.3129 295.732 57.3038 296.462 57.2945C298.35 57.4419 298.35 57.4419 300.388 58.721C300.414 58.2708 300.439 57.8207 300.465 57.357C300.835 52.1393 301.836 47.179 303.107 42.0931C306.782 41.599 310.269 41.3912 313.981 41.4535ZM295.759 65.0364C297.041 65.076 297.041 65.076 298.35 65.1163C298.271 66.729 298.185 68.3407 298.095 69.9528C298.063 70.6286 298.063 70.6286 298.031 71.3181C297.733 76.3879 296.654 79.9659 292.913 83.6628C290.99 84.5674 289.6 84.5064 287.476 84.3024C285.938 83.1928 285.535 82.3028 285.222 80.5176C284.942 75.7153 286.695 71.5916 289.557 67.6744C291.581 65.7081 292.891 64.9479 295.759 65.0364Z" fill="#0DA08F"></path><path fill-rule="evenodd" clip-rule="evenodd" d="M126.917 58.8009C129.576 60.7878 131.588 62.7486 132.076 66.0306C132.2 69.1761 132.147 71.6599 129.806 74.0698C123.156 78.7018 116.802 79.326 108.738 79.186C109.916 81.8228 109.916 81.8228 111.923 83.9026C115.699 84.8628 118.447 84.6961 121.82 82.9433C122.244 82.691 122.668 82.4388 123.105 82.1789C124.369 81.7442 124.369 81.7442 125.832 82.2363C127.402 83.2206 127.881 83.889 128.447 85.5814C128.531 87.1403 128.531 87.1403 127.767 88.7791C123.267 92.1534 119.303 92.7725 113.707 92.8561C112.817 92.892 112.817 92.892 111.909 92.9285C107.507 92.9842 104.642 92.1099 101.262 89.4186C100.012 88.0546 100.012 88.0546 99.2657 86.7805C99.0073 86.3568 98.7488 85.933 98.4826 85.4964C96.1786 81.0486 96.3176 75.2546 97.9516 70.6098C100.844 64.9893 104.074 60.8105 110.097 58.0814C114.869 56.5776 122.549 56.3717 126.917 58.8009ZM119.612 65.1163C120.06 65.5384 120.509 65.9605 120.971 66.3953C120.747 68.504 120.548 69.3517 118.932 70.8721C117.442 71.1641 115.938 71.3968 114.43 71.5916C113.218 71.7523 113.218 71.7523 111.982 71.9163C111.36 71.9938 110.738 72.0713 110.097 72.1512C110.54 68.9717 111.643 67.8145 114.233 65.8632C116.112 64.7842 117.474 64.742 119.612 65.1163Z" fill="#F2F4F8"></path><path fill-rule="evenodd" clip-rule="evenodd" d="M224.357 57.162C224.82 57.1555 225.283 57.149 225.76 57.1422C229.943 57.2107 232.592 58.4076 235.74 60.9193C237.766 63.381 237.618 66.0529 237.461 69.0559C237.071 71.6175 236.418 72.8723 234.466 74.7093C228.654 78.6859 222.449 79.3989 215.437 79.186C215.885 80.8744 216.334 82.5628 216.796 84.3023C222.2 84.6074 225.709 84.3533 230.388 81.7442C230.837 81.7442 231.285 81.7442 231.748 81.7442C232.984 83.3104 233.708 84.6463 234.211 86.5407C233.619 88.7711 232.432 89.4519 230.41 90.6527C225.248 93.2121 219.089 93.1588 213.398 92.6163C209.495 91.1199 207.112 89.0402 205.168 85.4789C203.33 79.9629 203.686 73.066 206.305 67.8742C208.244 64.7849 210.374 62.1968 213.398 60C213.77 59.7238 214.143 59.4476 214.526 59.1631C217.611 57.3195 220.779 57.2014 224.357 57.162ZM223.762 64.8365C226.311 65.1163 226.311 65.1163 226.99 65.7558C227.245 67.2347 227.245 67.2347 226.99 68.9535C224.934 71.2761 223.056 71.6958 219.982 71.9913C218.921 72.0554 217.859 72.1123 216.796 72.1511C217.166 68.2034 219.3 64.8817 223.762 64.8365Z" fill="#0D9E8E"></path><path d="M243.301 57.4419C244.759 57.4247 246.218 57.4123 247.676 57.4019C248.488 57.3945 249.3 57.3871 250.137 57.3794C252.136 57.4419 252.136 57.4419 252.815 58.0814C252.843 59.5734 252.844 61.0662 252.815 62.5582C253.264 62.5582 253.713 62.5582 254.175 62.5582C254.399 61.925 254.623 61.2919 254.854 60.6396C257.571 58.2128 260.397 57.2064 264.114 57.0822C267.507 57.2285 269.325 57.8785 271.845 60C274.971 65.8843 271.923 76.0501 270.75 82.2414C270.358 84.3494 270.018 86.4632 269.678 88.5792C269.496 89.7004 269.314 90.8216 269.126 91.9768C265.538 91.9768 261.949 91.9768 258.252 91.9768C258.252 88.96 258.312 86.6269 258.847 83.7453C258.97 83.0614 259.092 82.3776 259.219 81.673C259.48 80.2573 259.742 78.8417 260.004 77.4261C260.674 73.6894 261.127 70.1852 260.971 66.3954C259.137 65.9109 259.137 65.9109 256.893 66.3954C252.45 70.145 251.344 74.1325 250.904 79.5458C250.775 80.8127 250.643 82.0793 250.509 83.3456C250.448 83.9417 250.387 84.5378 250.324 85.1521C250.012 87.5013 249.42 89.6999 248.738 91.9768C245.149 91.9768 241.561 91.9768 237.864 91.9768C238.158 87.2743 238.527 82.9009 239.551 78.303C240.255 74.9487 240.685 71.5532 241.164 68.1653C241.693 64.5373 242.409 61.007 243.301 57.4419Z" fill="#0DA18F"></path><path d="M155.589 57.1221C156.129 57.1243 156.669 57.1266 157.225 57.129C160.766 57.2237 163.392 57.643 166.292 59.6902C167.315 60.7781 167.919 61.8749 168.544 63.1977C167.089 64.8665 165.623 66.3724 163.786 67.6744C161.578 67.6344 161.578 67.6344 159.029 67.0349C154.514 66.4576 154.514 66.4576 150.367 67.7793C147.37 71.0426 146.527 74.2592 146.616 78.4466C146.899 80.6082 147.896 82.1399 149.515 83.6628C153.305 84.0344 155.655 83.2454 159.018 81.6018C160.388 81.1046 160.388 81.1046 162.427 81.7442C163.815 83.423 164.466 84.4349 164.466 86.5807C163.378 89.0772 161.678 90.0829 159.162 91.2822C153.996 93.2452 147.672 93.5608 142.31 92.1516C138.438 90.4732 136.295 88.0087 134.733 84.3023C132.793 78.0961 133.336 72.6396 136.518 66.9287C140.667 60.1748 147.525 57.0616 155.589 57.1221Z" fill="#F2F4F8"></path><path d="M125.728 18.4302C127.954 19.3395 129.346 20.434 130.995 22.1C131.465 22.572 131.934 23.0439 132.418 23.5302C133.143 24.2703 133.143 24.2703 133.883 25.0254C134.367 25.5114 134.851 25.9973 135.349 26.4981C140.713 31.9181 140.713 31.9181 142.039 33.779C141.702 34.7287 141.702 34.7287 141.359 35.6976C139.896 36.2147 139.896 36.2147 138.004 36.6169C134.852 37.3527 131.955 38.2895 128.962 39.4624C124.555 41.1365 120.042 42.5975 115.534 44.0116C115.905 41.0781 116.805 38.9442 118.252 36.3372C104.288 36.0993 91.9553 37.0862 80.072 44.6486C79.6638 44.8605 79.2555 45.0723 78.8349 45.2906C78.3864 45.0796 77.9378 44.8685 77.4757 44.6511C88.0446 33.9879 101.062 26.2173 116.875 25.3102C118.929 25.306 120.96 25.3443 123.01 25.4651C123.1 24.8698 123.19 24.2746 123.283 23.6614C123.709 21.5278 124.446 20.2138 125.728 18.4302Z" fill="#0EA091"></path><path d="M205.922 41.4535C204.984 48.0379 204.027 54.6193 203.015 61.1941C202.94 61.6848 202.865 62.1754 202.787 62.6809C202.411 65.1346 202.032 67.588 201.65 70.041C200.885 74.9979 200.201 79.9443 199.806 84.9419C200.479 84.9419 201.151 84.9419 201.845 84.9419C201.845 87.0523 201.845 89.1628 201.845 91.3372C198.509 92.9069 195.997 92.9904 192.33 92.6163C189.263 91.3204 189.263 91.3204 188.252 89.4186C187.471 81.351 189.118 73.3794 190.501 65.4478C190.888 63.2279 191.263 61.0065 191.637 58.7846C191.88 57.3585 192.123 55.9325 192.367 54.5065C192.479 53.8496 192.591 53.1926 192.706 52.5158C193.323 48.9879 194.067 45.5476 195.048 42.093C196.429 41.9332 196.429 41.9332 197.809 41.7733C198.578 41.6842 198.578 41.6842 199.362 41.5934C201.554 41.4233 203.724 41.4333 205.922 41.4535Z" fill="#0D9F8E"></path><path d="M184.175 41.4535C186.511 42.6926 186.511 42.6926 188.252 44.6512C188.751 46.6626 188.729 48.3929 188.252 50.407C186.758 52.3462 185.908 52.8478 183.495 53.6047C180.591 53.9083 179.209 53.897 176.742 52.3656C175.111 50.0873 174.796 48.7358 174.968 46.0327C175.34 44.6512 175.34 44.6512 177.081 42.6926C179.812 41.2441 181.093 40.9357 184.175 41.4535Z" fill="#F2F4F8"></path><path d="M173.981 57.4419C178.017 57.4419 182.054 57.4419 186.214 57.4419C185.762 62.2022 185.053 66.8788 184.217 71.5916C183.254 77.1161 182.39 82.6314 181.724 88.1945C181.456 90.0582 181.456 90.0582 180.777 91.9768C176.964 91.9768 173.151 91.9768 169.223 91.9768C169.749 82.8259 169.749 82.8259 170.519 79.8056C171.603 75.4858 172.107 71.0726 172.706 66.6752C172.831 65.7771 172.956 64.879 173.081 63.9809C173.384 61.8016 173.682 59.6218 173.981 57.4419Z" fill="#F2F4F8"></path><path d="M84.9514 37.6163C85.4 37.8274 85.8485 38.0384 86.3107 38.2559C85.6378 39.2056 85.6378 39.2056 84.9514 40.1745C85.6243 40.3855 86.2971 40.5966 86.9903 40.814C85.7898 41.4585 84.5856 42.0969 83.3798 42.7326C82.3746 43.2668 82.3746 43.2668 81.349 43.8118C79.5145 44.6512 79.5145 44.6512 77.4757 44.6512C79.9427 42.3297 82.4097 40.0082 84.9514 37.6163Z" fill="#24AC9C"></path><path d="M313.98 41.4535C313.756 43.9861 313.532 46.5186 313.301 49.1279C313.077 49.1279 312.852 49.1279 312.621 49.1279C312.621 47.0175 312.621 44.907 312.621 42.7326C309.481 42.7326 306.342 42.7326 303.107 42.7326C303.107 42.5215 303.107 42.3105 303.107 42.0931C306.782 41.599 310.269 41.3912 313.98 41.4535Z" fill="#55BFB2"></path><path d="M259.229 65.436C260.091 65.5943 260.091 65.5943 260.971 65.7558C260.575 65.919 260.179 66.0823 259.771 66.2504C258.107 67.11 257.017 68.0697 255.704 69.3532C255.287 69.7571 254.87 70.1611 254.44 70.5773C254.128 70.8856 253.817 71.1939 253.495 71.5116C253.047 71.3006 252.598 71.0895 252.136 70.8721C256.157 65.8566 256.157 65.8566 259.229 65.436Z" fill="#0DA18F"></path><path d="M143.398 60C143.847 60.211 144.295 60.4221 144.757 60.6395C142.739 62.539 140.72 64.4384 138.641 66.3953C138.192 66.1843 137.744 65.9733 137.281 65.7558C139.178 63.5254 140.851 61.5978 143.398 60Z" fill="#F2F4F8"></path><path d="M81.5534 40.814C82.0019 41.4471 82.4505 42.0802 82.9126 42.7326C81.567 43.5768 80.2213 44.4209 78.8349 45.2907C78.3864 45.0797 77.9378 44.8686 77.4757 44.6512C78.8213 43.3849 80.167 42.1186 81.5534 40.814Z" fill="#34C3A8"></path></svg></g></g></svg></g></svg>