<svg width="24" height="24" viewBox="0 0 24 24" fill="none" xmlns="http://www.w3.org/2000/svg">
<mask id="mask0_482_2015" style="mask-type:alpha" maskUnits="userSpaceOnUse" x="0" y="0" width="24" height="24">
<rect width="24" height="24" fill="#D9D9D9"/>
</mask>
<g mask="url(#mask0_482_2015)">
<path d="M17 18V16H22V18H17ZM15 13V11H22V13H15ZM13 8V6H22V8H13ZM5.875 11.125C5.29167 10.5417 5 9.83333 5 9C5 8.16667 5.29167 7.45833 5.875 6.875C6.45833 6.29167 7.16667 6 8 6C8.83333 6 9.54167 6.29167 10.125 6.875C10.7083 7.45833 11 8.16667 11 9C11 9.83333 10.7083 10.5417 10.125 11.125C9.54167 11.7083 8.83333 12 8 12C7.16667 12 6.45833 11.7083 5.875 11.125ZM2 18V16.1C2 15.75 2.08333 15.4167 2.25 15.1C2.41667 14.7833 2.65 14.5333 2.95 14.35C3.7 13.9 4.49583 13.5625 5.3375 13.3375C6.17917 13.1125 7.06667 13 8 13C8.93333 13 9.82083 13.1125 10.6625 13.3375C11.5042 13.5625 12.3 13.9 13.05 14.35C13.35 14.5333 13.5833 14.7833 13.75 15.1C13.9167 15.4167 14 15.75 14 16.1V18H2Z" fill="#B6BCC8"/>
</g>
</svg>
