<svg width="64" height="64" viewBox="0 0 64 64" fill="none" xmlns="http://www.w3.org/2000/svg">
<mask id="mask0_515_1996" style="mask-type:alpha" maskUnits="userSpaceOnUse" x="0" y="0" width="64" height="64">
<rect width="64" height="64" fill="#D9D9D9"/>
</mask>
<g mask="url(#mask0_515_1996)">
<path d="M15.5997 45.6C17.8663 43.8667 20.3997 42.5 23.1997 41.5C25.9997 40.5 28.933 40 31.9997 40C35.0663 40 37.9997 40.5 40.7997 41.5C43.5997 42.5 46.133 43.8667 48.3997 45.6C49.9552 43.7778 51.1663 41.7111 52.033 39.4C52.8997 37.0889 53.333 34.6222 53.333 32C53.333 26.0889 51.2552 21.0556 47.0997 16.9C42.9441 12.7444 37.9108 10.6667 31.9997 10.6667C26.0886 10.6667 21.0552 12.7444 16.8997 16.9C12.7441 21.0556 10.6663 26.0889 10.6663 32C10.6663 34.6222 11.0997 37.0889 11.9663 39.4C12.833 41.7111 14.0441 43.7778 15.5997 45.6ZM25.3663 31.9667C23.5663 30.1667 22.6663 27.9556 22.6663 25.3333C22.6663 22.7111 23.5663 20.5 25.3663 18.7C27.1663 16.9 29.3775 16 31.9997 16C34.6219 16 36.833 16.9 38.633 18.7C40.433 20.5 41.333 22.7111 41.333 25.3333C41.333 27.9556 40.433 30.1667 38.633 31.9667C36.833 33.7667 34.6219 34.6667 31.9997 34.6667C29.3775 34.6667 27.1663 33.7667 25.3663 31.9667ZM31.9997 58.6667C28.3108 58.6667 24.8441 57.9667 21.5997 56.5667C18.3552 55.1667 15.533 53.2667 13.133 50.8667C10.733 48.4667 8.83301 45.6444 7.43301 42.4C6.03301 39.1556 5.33301 35.6889 5.33301 32C5.33301 28.3111 6.03301 24.8444 7.43301 21.6C8.83301 18.3556 10.733 15.5333 13.133 13.1333C15.533 10.7333 18.3552 8.83333 21.5997 7.43333C24.8441 6.03333 28.3108 5.33333 31.9997 5.33333C35.6886 5.33333 39.1552 6.03333 42.3997 7.43333C45.6441 8.83333 48.4663 10.7333 50.8663 13.1333C53.2663 15.5333 55.1663 18.3556 56.5663 21.6C57.9663 24.8444 58.6663 28.3111 58.6663 32C58.6663 35.6889 57.9663 39.1556 56.5663 42.4C55.1663 45.6444 53.2663 48.4667 50.8663 50.8667C48.4663 53.2667 45.6441 55.1667 42.3997 56.5667C39.1552 57.9667 35.6886 58.6667 31.9997 58.6667Z" fill="#0F766E"/>
</g>
</svg>
