<svg width="24" height="24" viewBox="0 0 24 24" fill="none" xmlns="http://www.w3.org/2000/svg">
<mask id="mask0_338_5470" style="mask-type:alpha" maskUnits="userSpaceOnUse" x="0" y="0" width="24" height="24">
<rect width="24" height="24" fill="#F2F4F8"/>
</mask>
<g mask="url(#mask0_338_5470)">
<path d="M14.998 21C13.0314 21 11.2814 20.4417 9.74805 19.325C8.21471 18.2083 7.13138 16.7667 6.49805 15H2.99805V13H6.04805C5.99805 12.6 5.97721 12.2292 5.98555 11.8875C5.99388 11.5458 6.01471 11.25 6.04805 11H2.99805V9H6.49805C7.13138 7.23333 8.21471 5.79167 9.74805 4.675C11.2814 3.55833 13.0314 3 14.998 3C16.148 3 17.2355 3.20417 18.2605 3.6125C19.2855 4.02083 20.198 4.58333 20.998 5.3L19.573 6.7C18.9564 6.16667 18.2605 5.75 17.4855 5.45C16.7105 5.15 15.8814 5 14.998 5C13.5814 5 12.3147 5.37083 11.198 6.1125C10.0814 6.85417 9.23971 7.81667 8.67305 9H14.998V11H8.07305C8.00638 11.45 7.98138 11.8458 7.99805 12.1875C8.01471 12.5292 8.03971 12.8 8.07305 13H14.998V15H8.67305C9.23971 16.1833 10.0814 17.1458 11.198 17.8875C12.3147 18.6292 13.5814 19 14.998 19C15.8814 19 16.7105 18.85 17.4855 18.55C18.2605 18.25 18.9564 17.8333 19.573 17.3L20.998 18.7C20.198 19.4167 19.2855 19.9792 18.2605 20.3875C17.2355 20.7958 16.148 21 14.998 21Z" fill="#F2F4F8"/>
</g>
</svg>
