<svg width="24" height="24" viewBox="0 0 24 24" fill="none" xmlns="http://www.w3.org/2000/svg">
<mask id="mask0_338_5461" style="mask-type:alpha" maskUnits="userSpaceOnUse" x="0" y="0" width="24" height="24">
<rect width="24" height="24" fill="#D9D9D9"/>
</mask>
<g mask="url(#mask0_338_5461)">
<path d="M3.99805 20C3.44805 20 2.97721 19.8042 2.58555 19.4125C2.19388 19.0208 1.99805 18.55 1.99805 18V6C1.99805 5.45 2.19388 4.97917 2.58555 4.5875C2.97721 4.19583 3.44805 4 3.99805 4H14.998C15.3147 4 15.6147 4.07083 15.898 4.2125C16.1814 4.35417 16.4147 4.55 16.598 4.8L21.998 12L16.598 19.2C16.4147 19.45 16.1814 19.6458 15.898 19.7875C15.6147 19.9292 15.3147 20 14.998 20H3.99805ZM3.99805 18H14.998L19.498 12L14.998 6H3.99805V18Z" fill="#F2F4F8"/>
</g>
</svg>
