<svg width="24" height="24" viewBox="0 0 24 24" fill="none" xmlns="http://www.w3.org/2000/svg">
<g opacity="0.5">
<mask id="mask0_237_3338" style="mask-type:alpha" maskUnits="userSpaceOnUse" x="0" y="0" width="24" height="24">
<rect width="23.9193" height="23.9193" fill="#D9D9D9"/>
</mask>
<g mask="url(#mask0_237_3338)">
<path d="M13.3674 11.3741C13.7578 10.9838 13.9529 10.5145 13.9529 9.96636C13.9529 9.41821 13.7578 8.94896 13.3674 8.55861C12.9771 8.16826 12.5078 7.97309 11.9597 7.97309C11.4115 7.97309 10.9422 8.16826 10.5519 8.55861C10.1615 8.94896 9.96637 9.41821 9.96637 9.96636C9.96637 10.5145 10.1615 10.9838 10.5519 11.3741C10.9422 11.7645 11.4115 11.9596 11.9597 11.9596C12.5078 11.9596 12.9771 11.7645 13.3674 11.3741ZM11.9597 19.2849C13.9861 17.4245 15.4894 15.7344 16.4694 14.2145C17.4495 12.6947 17.9395 11.345 17.9395 10.1657C17.9395 8.35513 17.3623 6.87263 16.2078 5.71819C15.0534 4.56375 13.6373 3.98653 11.9597 3.98653C10.282 3.98653 8.86592 4.56375 7.71148 5.71819C6.55704 6.87263 5.97982 8.35513 5.97982 10.1657C5.97982 11.345 6.46983 12.6947 7.44986 14.2145C8.42989 15.7344 9.93315 17.4245 11.9597 19.2849ZM11.9597 21.926C9.28534 19.6504 7.28791 17.5367 5.96736 15.5849C4.64681 13.6332 3.98654 11.8268 3.98654 10.1657C3.98654 7.6741 4.78801 5.68912 6.39093 4.21078C7.99386 2.73243 9.8501 1.99326 11.9597 1.99326C14.0692 1.99326 15.9254 2.73243 17.5284 4.21078C19.1313 5.68912 19.9328 7.6741 19.9328 10.1657C19.9328 11.8268 19.2725 13.6332 17.9519 15.5849C16.6314 17.5367 14.634 19.6504 11.9597 21.926Z" fill="#F2F4F8"/>
</g>
</g>
</svg>
