<svg width="30" height="27" viewBox="0 0 30 27" fill="none" xmlns="http://www.w3.org/2000/svg">
<mask id="mask0_312_4468" style="mask-type:alpha" maskUnits="userSpaceOnUse" x="0" y="0" width="30" height="27">
<rect width="30" height="27" fill="#D9D9D9"/>
</mask>
<g mask="url(#mask0_312_4468)">
<path d="M26.1563 23.5652L19.0346 16.4435C18.4694 16.8957 17.8194 17.2536 17.0846 17.5174C16.3498 17.7812 15.5679 17.9131 14.7389 17.9131C12.6853 17.9131 10.9473 17.2018 9.52481 15.7794C8.10235 14.3569 7.39111 12.6189 7.39111 10.5652C7.39111 8.51161 8.10235 6.77357 9.52481 5.3511C10.9473 3.92864 12.6853 3.21741 14.7389 3.21741C16.7926 3.21741 18.5306 3.92864 19.9531 5.3511C21.3755 6.77357 22.0868 8.51161 22.0868 10.5652C22.0868 11.3942 21.9549 12.1761 21.6911 12.9109C21.4273 13.6457 21.0694 14.2957 20.6172 14.8609L27.7389 21.9826L26.1563 23.5652ZM14.7389 15.6522C16.152 15.6522 17.3531 15.1576 18.3422 14.1685C19.3313 13.1794 19.8259 11.9783 19.8259 10.5652C19.8259 9.15219 19.3313 7.9511 18.3422 6.96197C17.3531 5.97284 16.152 5.47828 14.7389 5.47828C13.3259 5.47828 12.1248 5.97284 11.1357 6.96197C10.1465 7.9511 9.65198 9.15219 9.65198 10.5652C9.65198 11.9783 10.1465 13.1794 11.1357 14.1685C12.1248 15.1576 13.3259 15.6522 14.7389 15.6522Z" fill="#0A0A0B"/>
</g>
</svg>
